<mxfile host="app.diagrams.net" modified="2022-03-19T05:49:27.998Z" agent="5.0 (Windows NT 10.0; Win64; x64) AppleWebKit/537.36 (KHTML, like Gecko) Chrome/99.0.4844.51 Safari/537.36 Edg/99.0.1150.39" etag="6cK9Ax_XWqf6cO3gi9Ci" version="17.1.3" type="github">
  <diagram id="C5RBs43oDa-KdzZeNtuy" name="Page-1">
    <mxGraphModel dx="856" dy="545" grid="1" gridSize="10" guides="1" tooltips="1" connect="1" arrows="1" fold="1" page="1" pageScale="1" pageWidth="827" pageHeight="1169" math="0" shadow="0">
      <root>
        <mxCell id="WIyWlLk6GJQsqaUBKTNV-0" />
        <mxCell id="WIyWlLk6GJQsqaUBKTNV-1" parent="WIyWlLk6GJQsqaUBKTNV-0" />
        <mxCell id="mrERcb0nR9c84T2lWwdh-0" style="edgeStyle=none;rounded=0;orthogonalLoop=1;jettySize=auto;html=1;exitX=1;exitY=0;exitDx=0;exitDy=0;entryX=0;entryY=0.5;entryDx=0;entryDy=0;" edge="1" parent="WIyWlLk6GJQsqaUBKTNV-1" source="mrERcb0nR9c84T2lWwdh-4" target="mrERcb0nR9c84T2lWwdh-12">
          <mxGeometry relative="1" as="geometry" />
        </mxCell>
        <mxCell id="mrERcb0nR9c84T2lWwdh-1" style="rounded=0;orthogonalLoop=1;jettySize=auto;html=1;entryX=0;entryY=0.5;entryDx=0;entryDy=0;" edge="1" parent="WIyWlLk6GJQsqaUBKTNV-1" source="mrERcb0nR9c84T2lWwdh-4" target="mrERcb0nR9c84T2lWwdh-22">
          <mxGeometry relative="1" as="geometry" />
        </mxCell>
        <mxCell id="mrERcb0nR9c84T2lWwdh-4" value="关联分析管理" style="ellipse;whiteSpace=wrap;html=1;" vertex="1" parent="WIyWlLk6GJQsqaUBKTNV-1">
          <mxGeometry x="160" y="260" width="140" height="80" as="geometry" />
        </mxCell>
        <mxCell id="mrERcb0nR9c84T2lWwdh-11" value="" style="edgeStyle=none;rounded=0;orthogonalLoop=1;jettySize=auto;html=1;exitX=1;exitY=0.5;exitDx=0;exitDy=0;entryX=0;entryY=0;entryDx=0;entryDy=0;" edge="1" parent="WIyWlLk6GJQsqaUBKTNV-1" source="mrERcb0nR9c84T2lWwdh-12" target="mrERcb0nR9c84T2lWwdh-52">
          <mxGeometry relative="1" as="geometry">
            <mxPoint x="543" y="146.5" as="targetPoint" />
          </mxGeometry>
        </mxCell>
        <mxCell id="mrERcb0nR9c84T2lWwdh-12" value="关联分析规则" style="rounded=0;whiteSpace=wrap;html=1;" vertex="1" parent="WIyWlLk6GJQsqaUBKTNV-1">
          <mxGeometry x="380" y="180" width="120" height="30" as="geometry" />
        </mxCell>
        <mxCell id="mrERcb0nR9c84T2lWwdh-13" value="" style="endArrow=none;html=1;rounded=0;" edge="1" parent="WIyWlLk6GJQsqaUBKTNV-1">
          <mxGeometry width="50" height="50" relative="1" as="geometry">
            <mxPoint x="380" y="214" as="sourcePoint" />
            <mxPoint x="500" y="214" as="targetPoint" />
          </mxGeometry>
        </mxCell>
        <mxCell id="mrERcb0nR9c84T2lWwdh-14" value="" style="endArrow=none;html=1;rounded=0;" edge="1" parent="WIyWlLk6GJQsqaUBKTNV-1">
          <mxGeometry width="50" height="50" relative="1" as="geometry">
            <mxPoint x="380" y="220.00000000000023" as="sourcePoint" />
            <mxPoint x="500" y="220.00000000000023" as="targetPoint" />
          </mxGeometry>
        </mxCell>
        <mxCell id="mrERcb0nR9c84T2lWwdh-21" value="" style="edgeStyle=none;rounded=0;orthogonalLoop=1;jettySize=auto;html=1;exitX=1;exitY=0.5;exitDx=0;exitDy=0;entryX=0;entryY=1;entryDx=0;entryDy=0;" edge="1" parent="WIyWlLk6GJQsqaUBKTNV-1" source="mrERcb0nR9c84T2lWwdh-22" target="mrERcb0nR9c84T2lWwdh-52">
          <mxGeometry relative="1" as="geometry">
            <mxPoint x="543" y="243.92999999999995" as="targetPoint" />
          </mxGeometry>
        </mxCell>
        <mxCell id="mrERcb0nR9c84T2lWwdh-22" value="关联分析任务" style="rounded=0;whiteSpace=wrap;html=1;" vertex="1" parent="WIyWlLk6GJQsqaUBKTNV-1">
          <mxGeometry x="380" y="380" width="120" height="30" as="geometry" />
        </mxCell>
        <mxCell id="mrERcb0nR9c84T2lWwdh-23" value="" style="endArrow=none;html=1;rounded=0;" edge="1" parent="WIyWlLk6GJQsqaUBKTNV-1">
          <mxGeometry width="50" height="50" relative="1" as="geometry">
            <mxPoint x="380" y="414.00000000000006" as="sourcePoint" />
            <mxPoint x="500" y="414.00000000000006" as="targetPoint" />
          </mxGeometry>
        </mxCell>
        <mxCell id="mrERcb0nR9c84T2lWwdh-24" value="" style="endArrow=none;html=1;rounded=0;" edge="1" parent="WIyWlLk6GJQsqaUBKTNV-1">
          <mxGeometry width="50" height="50" relative="1" as="geometry">
            <mxPoint x="380" y="420.0000000000003" as="sourcePoint" />
            <mxPoint x="500" y="420.0000000000003" as="targetPoint" />
          </mxGeometry>
        </mxCell>
        <mxCell id="mrERcb0nR9c84T2lWwdh-52" value="溯源事件分析" style="ellipse;whiteSpace=wrap;html=1;" vertex="1" parent="WIyWlLk6GJQsqaUBKTNV-1">
          <mxGeometry x="590" y="260" width="140" height="80" as="geometry" />
        </mxCell>
      </root>
    </mxGraphModel>
  </diagram>
</mxfile>
